# xmcd
#
# Track frame offsets:
#	150
#	23314
#	47969
#	70039
#	95205
#	113494
#	135055
#	155834
#	174641
#	199740
#
# Disc length: 2968 seconds
#
# Revision: 0
# Processed by: cddbd v1.5.2PL0 Copyright (c) Steve Scherf et al.
# Submitted via: EasyCDDAExtractor 16.0.4.1
#
DISCID=7c0b960a
DTITLE=Cẩm Ly, Quốc Đại - Buồn Trong Kỷ Niệm
DYEAR=2009
DGENRE=Pop
TTITLE0=Quốc Đại - Đêm Lang Thang
TTITLE1=Cẩm Ly - Buồn Trong Kỷ Niệm
TTITLE2=Cẩm Ly, Quốc Đại - Duyên Quê
TTITLE3=Quốc Đại - Siết Chặt Bàn Tay
TTITLE4=Cẩm Ly - Thao Thức Vì Anh
TTITLE5=Cẩm Ly, Quốc Đại - Sài Gòn Em Nhớ Ai
TTITLE6=Quốc Đại - Đường Xưa Lối Cũ
TTITLE7=Cẩm Ly - Mưa Rừng
TTITLE8=Quốc Đại - Bà Mẹ Quê
TTITLE9=Cẩm Ly, Quốc Đại - Phút Cuối
EXTD=
EXTT0=
EXTT1=
EXTT2=
EXTT3=
EXTT4=
EXTT5=
EXTT6=
EXTT7=
EXTT8=
EXTT9=
PLAYORDER=
